<svg xmlns="http://www.w3.org/2000/svg" width="1200" height="82" viewBox="0 0 1200 82" role="img" aria-label="Séparateur pixel art">
  <defs>
    <linearGradient id="line" x1="0" y1="0" x2="1" y2="0">
      <stop offset="0%" stop-color="#22c55e" stop-opacity="0"/>
      <stop offset="22%" stop-color="#22c55e" stop-opacity=".8"/>
      <stop offset="50%" stop-color="#f97316" stop-opacity=".9"/>
      <stop offset="78%" stop-color="#38bdf8" stop-opacity=".8"/>
      <stop offset="100%" stop-color="#38bdf8" stop-opacity="0"/>
    </linearGradient>
  </defs>
  <rect x="80" y="38" width="1040" height="4" rx="2" fill="url(#line)"/>
  <g>
    <rect x="146" y="30" width="18" height="18" rx="3" fill="#22c55e"/>
    <rect x="188" y="30" width="18" height="18" rx="3" fill="#f97316"/>
    <rect x="230" y="30" width="18" height="18" rx="3" fill="#38bdf8"/>
    <rect x="272" y="30" width="18" height="18" rx="3" fill="#facc15"/>
    <rect x="930" y="30" width="18" height="18" rx="3" fill="#facc15"/>
    <rect x="972" y="30" width="18" height="18" rx="3" fill="#38bdf8"/>
    <rect x="1014" y="30" width="18" height="18" rx="3" fill="#f97316"/>
    <rect x="1056" y="30" width="18" height="18" rx="3" fill="#22c55e"/>
    <animate attributeName="opacity" values=".65;1;.65" dur="3.2s" repeatCount="indefinite"/>
  </g>
  <g opacity=".8">
    <rect x="512" y="18" width="12" height="12" fill="#22c55e"/>
    <rect x="536" y="18" width="12" height="12" fill="#38bdf8"/>
    <rect x="560" y="18" width="12" height="12" fill="#f97316"/>
    <rect x="584" y="18" width="12" height="12" fill="#facc15"/>
    <rect x="608" y="18" width="12" height="12" fill="#22c55e"/>
    <rect x="632" y="18" width="12" height="12" fill="#38bdf8"/>
    <rect x="656" y="18" width="12" height="12" fill="#f97316"/>
    <animateTransform attributeName="transform" type="translate" values="0 0; 24 0; 0 0" dur="5s" repeatCount="indefinite"/>
  </g>
</svg>
